HIERARCHY
ROOT hip
{
  OFFSET 0 0 0
  CHANNELS 6 Xposition Yposition Zposition Zrotation Yrotation Xrotation
  JOINT abdomen
  {
    OFFSET 0 20.6881 -0.73152
    CHANNELS 3 Zrotation Xrotation Yrotation
    JOINT chest
    {
      OFFSET 0 11.7043 -0.48768
      CHANNELS 3 Zrotation Xrotation Yrotation
      JOINT neck
      {
        OFFSET 0 22.1894 -2.19456
        CHANNELS 3 Zrotation Xrotation Yrotation
        JOINT head
        {
          OFFSET -0.24384 7.07133 1.2192
          CHANNELS 3 Zrotation Xrotation Yrotation
          JOINT leftEye
          {
            OFFSET 4.14528 8.04674 8.04672
            CHANNELS 3 Zrotation Xrotation Yrotation
            End Site
            {
              OFFSET 1 0 0
            }
          }
          JOINT rightEye
          {
            OFFSET -3.6576 8.04674 8.04672
            CHANNELS 3 Zrotation Xrotation Yrotation
            End Site
            {
              OFFSET 1 0 0
            }
          }
        }
      }
      JOINT rCollar
      {
        OFFSET -2.68224 19.2634 -4.8768
        CHANNELS 3 Zrotation Xrotation Yrotation
        JOINT rShldr
        {
          OFFSET -8.77824 -1.95073 1.46304
          CHANNELS 3 Zrotation Xrotation Yrotation
          JOINT rForeArm
          {
            OFFSET -28.1742 -1.7115 0.48768
            CHANNELS 3 Zrotation Xrotation Yrotation
            JOINT rHand
            {
              OFFSET -22.5879 0.773209 7.07136
              CHANNELS 3 Zrotation Xrotation Yrotation
              JOINT rThumb1
              {
                OFFSET -1.2192 -0.487915 3.41376
                CHANNELS 3 Zrotation Xrotation Yrotation
                JOINT rThumb2
                {
                  OFFSET -3.37035 -0.52449 3.41376
                  CHANNELS 3 Zrotation Xrotation Yrotation
                  End Site
                  {
                    OFFSET -1.78271 -1.18214 1.43049
                  }
                }
              }
              JOINT rIndex1
              {
                OFFSET -7.75947 0.938293 5.60832
                CHANNELS 3 Zrotation Xrotation Yrotation
                JOINT rIndex2
                {
                  OFFSET -2.54057 -0.884171 1.56538
                  CHANNELS 3 Zrotation Xrotation Yrotation
                  End Site
                  {
                    OFFSET -1.62519 -0.234802 1.16502
                  }
                }
              }
              JOINT rMid1
              {
                OFFSET -8.24714 1.18213 3.41376
                CHANNELS 3 Zrotation Xrotation Yrotation
                JOINT rMid2
                {
                  OFFSET -3.10165 -0.590103 1.0647
                  CHANNELS 3 Zrotation Xrotation Yrotation
                  End Site
                  {
                    OFFSET -2.48547 -0.328903 0.83742
                  }
                }
              }
              JOINT rRing1
              {
                OFFSET -8.82822 0.546677 1.51678
                CHANNELS 3 Zrotation Xrotation Yrotation
                JOINT rRing2
                {
                  OFFSET -2.60934 -0.819778 -0.0198488
                  CHANNELS 3 Zrotation Xrotation Yrotation
                  End Site
                  {
                    OFFSET -2.33842 -0.294052 0.168128
                  }
                }
              }
              JOINT rPinky1
              {
                OFFSET -8.27202 -0.0477905 -0.4584
                CHANNELS 3 Zrotation Xrotation Yrotation
                JOINT rPinky2
                {
                  OFFSET -1.82734 -0.647385 -0.700984
                  CHANNELS 3 Zrotation Xrotation Yrotation
                  End Site
                  {
                    OFFSET -1.69225 -0.51767 -0.607171
                  }
                }
              }
            }
          }
        }
      }
      JOINT lCollar
      {
        OFFSET 2.68224 19.2634 -4.8768
        CHANNELS 3 Zrotation Xrotation Yrotation
        JOINT lShldr
        {
          OFFSET 8.77824 -1.95073 1.46304
          CHANNELS 3 Zrotation Xrotation Yrotation
          JOINT lForeArm
          {
            OFFSET 28.1742 -1.7115 0.48768
            CHANNELS 3 Zrotation Xrotation Yrotation
            JOINT lHand
            {
              OFFSET 22.5879 0.773209 7.07136
              CHANNELS 3 Zrotation Xrotation Yrotation
              JOINT lThumb1
              {
                OFFSET 1.2192 -0.487915 3.41376
                CHANNELS 3 Zrotation Xrotation Yrotation
                JOINT lThumb2
                {
                  OFFSET 3.37035 -0.52449 3.41376
                  CHANNELS 3 Zrotation Xrotation Yrotation
                  End Site
                  {
                    OFFSET 1.78271 -1.18214 1.43049
                  }
                }
              }
              JOINT lIndex1
              {
                OFFSET 7.75947 0.938293 5.60832
                CHANNELS 3 Zrotation Xrotation Yrotation
                JOINT lIndex2
                {
                  OFFSET 2.54057 -0.884171 1.56538
                  CHANNELS 3 Zrotation Xrotation Yrotation
                  End Site
                  {
                    OFFSET 1.62519 -0.234802 1.16502
                  }
                }
              }
              JOINT lMid1
              {
                OFFSET 8.24714 1.18213 3.41376
                CHANNELS 3 Zrotation Xrotation Yrotation
                JOINT lMid2
                {
                  OFFSET 3.10165 -0.590103 1.0647
                  CHANNELS 3 Zrotation Xrotation Yrotation
                  End Site
                  {
                    OFFSET 2.48547 -0.328903 0.83742
                  }
                }
              }
              JOINT lRing1
              {
                OFFSET 8.82822 0.546677 1.51678
                CHANNELS 3 Zrotation Xrotation Yrotation
                JOINT lRing2
                {
                  OFFSET 2.60934 -0.819778 -0.0198488
                  CHANNELS 3 Zrotation Xrotation Yrotation
                  End Site
                  {
                    OFFSET 2.33842 -0.294052 0.168128
                  }
                }
              }
              JOINT lPinky1
              {
                OFFSET 8.27202 -0.0477905 -0.4584
                CHANNELS 3 Zrotation Xrotation Yrotation
                JOINT lPinky2
                {
                  OFFSET 1.82734 -0.647385 -0.700984
                  CHANNELS 3 Zrotation Xrotation Yrotation
                  End Site
                  {
                    OFFSET 1.69225 -0.51767 -0.607171
                  }
                }
              }
            }
          }
        }
      }
    }
  }
  JOINT rButtock
  {
    OFFSET -8.77824 4.35084 1.2192
    CHANNELS 3 Zrotation Xrotation Yrotation
    JOINT rThigh
    {
      OFFSET 0 -1.70687 -2.19456
      CHANNELS 3 Zrotation Xrotation Yrotation
      JOINT rShin
      {
        OFFSET 0 -36.8199 0.73152
        CHANNELS 3 Zrotation Xrotation Yrotation
        JOINT rFoot
        {
          OFFSET 0.73152 -45.1104 -5.12064
          CHANNELS 3 Zrotation Xrotation Yrotation
          End Site
          {
            OFFSET -1.1221 -3.69964 12.103
          }
        }
      }
    }
  }
  JOINT lButtock
  {
    OFFSET 8.77824 4.35084 1.2192
    CHANNELS 3 Zrotation Xrotation Yrotation
    JOINT lThigh
    {
      OFFSET 0 -1.70687 -2.19456
      CHANNELS 3 Zrotation Xrotation Yrotation
      JOINT lShin
      {
        OFFSET 0 -36.8199 0.73152
        CHANNELS 3 Zrotation Xrotation Yrotation
        JOINT lFoot
        {
          OFFSET -0.73152 -45.1104 -5.12064
          CHANNELS 3 Zrotation Xrotation Yrotation
          End Site
          {
            OFFSET 1.1221 -3.69964 12.103
          }
        }
      }
    }
  }
}
MOTION
Frames:	4
Frame Time:	0.00833333
0.14737305 65.36136 -0.43872073 -18.76522 -43.31406 15.064197 7.2577424 16.722017 13.66725 -0.9555553 -12.566913 3.995786 -0.40395004 11.675266 6.9111123 5.360413 -21.59902 15.053886 -0.0036256332 0.0063015334 -0.08360939 -0.0031323805 0.06614547 0.024148062 -0.107139766 0.0098480955 0.07335849 53.694256 78.93839 12.098521 -27.096163 -44.33239 92.420296 -43.531887 -79.182144 -47.007465 -0.019236602 0.0858154 0.024915153 -0.0387374 -0.0844321 0.007752835 -0.026603146 0.055874687 0.028796729 7.743585 5.4434075 0.42817032 -0.00018697816 0.10878619 0.013696597 2.9040623 1.0253896 0.07863536 0.08033335 -0.026464418 -0.0017281359 10.272028 0.70280534 0.038878504 -0.03901304 0.02149749 0.012978098 2.147661 -0.72801226 -0.21122578 0.03209186 -0.05293623 -0.038364436 -59.9884 16.091381 -41.65773 28.235126 -35.599007 -76.250694 0.07385228 19.830204 -2.5020025 0.028080355 0.05473479 -0.036136284 0.04799161 0.038548067 0.020283068 0.07679361 -0.030537726 0.025586218 -7.7296715 5.4936786 -0.4171433 -0.041162867 0.027354028 -0.033284843 -2.9239628 0.99998164 -0.14860006 -0.021722004 -0.10159259 -0.019044397 -10.265944 0.722068 -0.002148065 -0.01754937 0.027489362 0.057443332 -2.204633 -0.7566581 0.1824415 0.0098079005 0.025170092 0.08551605 -20.829067 -18.616774 -29.703728 -2.2823012 64.289116 4.5698814 -7.053761 -12.364348 -13.845466 -0.03328663 0.030726759 0.07165089 77.877716 -50.39712 69.98424 5.5253997 80.48819 -3.8382761 0.8603584 11.72749 17.30568
0.35538265 65.103226 -0.95566875 -19.542507 -43.774498 14.821894 7.0566435 16.187685 13.522535 -0.9106682 -12.336339 3.8688788 -0.44228563 11.544786 6.991705 5.3447766 -21.743807 15.036154 0.02472888 0.00086392835 -0.048463207 -0.031659834 0.08397475 0.01665194 -0.061084174 -0.022563202 0.007246099 53.742645 78.81745 11.946286 -27.144415 -43.841267 91.42566 -28.337431 -75.57357 -35.384666 -0.045637306 0.066613086 -0.062738396 -0.007430916 -0.07826111 -0.047685392 -0.017520223 0.0009282488 0.06344513 7.719242 5.439925 0.4201886 -0.020678949 0.07010349 -0.015809378 2.918784 0.9030663 0.05676213 0.084061526 -0.029092459 0.05488432 10.2374935 0.7136623 0.013359712 -0.013847674 0.044097796 -0.023615206 2.1683018 -0.74793494 -0.15325767 -0.025997559 -0.006011436 -0.045985725 -61.588547 15.117851 -40.400616 28.314297 -35.22834 -75.56624 0.106895715 21.734312 -3.1539795 -0.014349532 0.04896462 -0.045147404 0.01092207 0.049863607 0.07708106 0.031669248 0.027804134 0.04841702 -7.693293 5.4143395 -0.429342 -0.039662372 0.018600909 0.02103689 -2.8719094 0.9746125 -0.15136687 0.046887387 -0.041879244 -0.024410972 -10.300486 0.7195734 -0.007991238 0.025703741 0.029198863 0.01947204 -2.2132318 -0.71882176 0.17165464 0.040561516 0.018930908 0.07623612 -18.779028 -17.940193 -32.037952 -0.52203697 68.412094 2.7015216 -5.626642 -12.823696 -14.899798 -0.019949732 0.0015130258 0.07634185 78.12597 -51.61015 70.94702 5.5654407 80.54583 -4.2477093 0.35097843 10.744266 17.049885
0.35887307 65.75316 -1.0137136 -19.8932 -44.376396 15.133774 6.8159485 15.81943 14.673863 -1.3398945 -12.427363 4.0539107 -0.589502 11.316909 6.7498403 5.3853455 -21.312828 14.723802 0.05585783 -0.01481941 -0.03668415 -0.01716567 0.03796103 0.008427091 -0.004859698 0.01065786 -0.0063448893 56.444168 78.840614 16.575567 -27.596504 -43.670425 91.04726 -59.715816 -83.43498 -51.223503 -0.009708109 0.011906863 -0.07231359 -0.02728302 -0.052566513 -0.038882367 -0.01170743 -0.03268749 0.033131417 7.6903534 5.470438 0.4173436 -0.022681123 0.041084833 0.03339711 2.931451 0.9029326 0.073363736 0.055456698 0.0055961213 0.050478633 10.267604 0.7284393 0.059320047 0.009300025 0.04514201 -0.026337106 2.17043 -0.7195742 -0.15459879 -0.022333372 0.014604032 -0.031994037 -62.55 13.135014 -40.303265 28.474941 -34.858162 -75.009125 -0.05379119 17.887438 -2.7038193 -0.026992144 0.036670737 -0.023525821 0.019264134 0.06509125 0.072346084 0.014187951 0.056235466 0.038717058 -7.7312813 5.452716 -0.43046388 -0.037568748 0.017872745 0.06030591 -2.8823528 0.97195786 -0.15814939 0.042141467 -0.03140795 -0.00022115797 -10.27283 0.72389805 -0.03760096 0.015083017 0.021746662 0.0012562416 -2.215846 -0.69310516 0.2213199 0.010766039 -0.0152201215 0.0120036835 -16.790573 -18.60289 -32.930923 -0.18288276 69.4568 2.5871072 -6.21596 -14.473068 -15.445005 -0.017027242 0.014681402 0.03258971 77.112404 -50.799667 69.31636 4.5402803 79.44369 -6.100362 0.2564277 11.035118 17.449242
0.307378 66.81666 -1.1882156 -20.070833 -45.492905 15.411659 6.476192 15.5386 15.256141 -1.5245756 -12.509775 4.280123 -0.31453687 11.252339 6.8941474 5.5646234 -20.913103 15.064691 0.065059714 0.0056634867 0.019311978 0.0068678674 -0.0025331073 -0.012358442 0.0075411554 0.044156916 -0.0014390784 53.71371 78.35281 14.079368 -27.423992 -43.636345 90.883 -63.74547 -81.50499 -66.56107 0.011644078 -0.014645026 -0.05321724 -0.006335086 -0.030558368 -0.043768227 -0.013607517 -0.04579151 0.020219835 7.6523137 5.497037 0.4358578 -0.054544352 0.046787895 0.060530476 2.92719 0.93292564 0.06449787 -0.0038350748 -0.008659023 0.025254555 10.291279 0.73920274 0.09807852 0.05544966 0.036307424 -0.015890071 2.1652071 -0.69097835 -0.18862547 -0.018806754 0.037351854 -0.038268335 -63.22276 12.735318 -40.61429 27.953714 -35.13492 -74.68028 0.54167753 17.73006 -1.9662058 -0.02713072 0.031478975 0.020801395 0.033306833 0.06551928 0.059287507 0.023739478 0.040854983 0.008889297 -7.772483 5.4745884 -0.4463211 -0.05356035 0.0021097148 0.0400037 -2.9067395 0.9664159 -0.1664305 0.06846968 -0.034258626 0.021795908 -10.258219 0.7205838 -0.03374101 0.0032503577 0.026315788 -0.0047820727 -2.230885 -0.7070656 0.23962718 -0.031268947 -0.009661418 -0.04970759 -16.230673 -19.241777 -31.903822 -0.75242615 69.77565 3.2345426 -6.7765155 -15.131006 -15.697843 -0.0008904468 0.010843551 0.004159549 75.71912 -50.0763 67.254486 4.258854 78.826645 -6.062896 0.41126055 10.93589 17.805817
